<?xml version="1.0" standalone="no"?>
<!DOCTYPE svg PUBLIC "-//W3C//DTD SVG 20010904//EN"
 "http://www.w3.org/TR/2001/REC-SVG-20010904/DTD/svg10.dtd">
<svg version="1.0" xmlns="http://www.w3.org/2000/svg"
 width="536.000000pt" height="536.000000pt" viewBox="0 0 536.000000 536.000000"
 preserveAspectRatio="xMidYMid meet">
<metadata>
Created by potrace 1.11, written by Peter Selinger 2001-2013
</metadata>
<g transform="translate(0.000000,536.000000) scale(0.100000,-0.100000)"
fill="#000000" stroke="none">
<path d="M2822 4831 c-12 -17 -22 -34 -22 -39 0 -20 -31 -34 -82 -38 -29 -2
-71 -6 -93 -9 -22 -3 -71 -7 -110 -10 -135 -10 -159 -17 -406 -115 -342 -137
-615 -287 -751 -412 -51 -48 -104 -96 -118 -108 -49 -42 -194 -175 -212 -194
-27 -30 -180 -254 -215 -316 -69 -124 -101 -188 -118 -235 -10 -27 -22 -54
-26 -60 -9 -12 -85 -258 -93 -300 -3 -16 -9 -48 -12 -70 -3 -22 -10 -58 -15
-80 -9 -40 -5 -447 6 -540 10 -81 78 -313 144 -487 23 -61 19 -59 93 -43 25 6
32 -1 97 -97 39 -57 96 -135 128 -175 32 -39 75 -98 96 -130 50 -77 50 -78
142 -158 44 -38 84 -75 90 -82 5 -6 69 -48 142 -92 150 -92 606 -292 708 -311
82 -15 212 -37 260 -45 65 -9 86 -13 165 -26 41 -6 86 -13 100 -15 14 -1 28
-2 32 -3 4 -1 24 -26 44 -56 33 -50 45 -58 84 -57 4 0 76 7 160 17 83 9 142
18 193 30 31 7 61 14 65 14 32 3 159 35 166 42 6 5 15 9 21 9 6 0 85 41 176
91 212 118 492 318 634 454 61 58 113 106 116 107 3 2 25 59 49 128 24 69 82
204 130 300 83 167 98 208 121 324 18 91 20 99 35 171 25 117 37 516 22 741
-10 146 -96 400 -217 643 l-90 180 15 36 c8 20 12 41 8 48 -4 7 -4 9 1 5 5 -5
13 2 20 15 6 12 9 24 6 27 -3 3 -33 36 -66 75 -33 38 -69 79 -80 90 -11 11
-58 63 -105 115 -47 52 -101 108 -120 125 -18 16 -61 55 -93 85 -33 30 -112
86 -176 124 -228 134 -617 316 -642 300 -7 -4 -9 -3 -6 3 4 6 0 14 -9 17 -24
9 -31 7 -14 -4 8 -5 10 -10 4 -10 -6 0 -16 6 -22 13 -8 10 -55 14 -174 16
l-163 2 -23 -30z"/>
</g>
</svg>
